<?xml version='1.0' encoding='iso-8859-1'?>
<!DOCTYPE svg PUBLIC '-//W3C//DTD SVG 1.1//EN' 'http://www.w3.org/Graphics/SVG/1.1/DTD/svg11.dtd'>
<svg version="1.1"
     xmlns="http://www.w3.org/2000/svg"
     viewBox="0 0 446.838 446.838" xmlns:xlink="http://www.w3.org/1999/xlink"
     enable-background="new 0 0 446.838 446.838">
  <g>
    <path d="m445.244,253.923l-44.843-104.864 13.619-13.62c2.929-2.929 2.929-7.678 0-10.606-2.93-2.929-7.678-2.929-10.607,0l-9.366,9.367-2.427-5.675c-4.963-11.606-16.325-19.105-28.948-19.105h-106.5c-59.222,0-114.917,26.104-152.806,71.619l-18.395,22.096c-2.992-1.226-6.208-1.895-9.481-1.895-13.79,0-25.01,11.219-25.01,25.01 0,4.87 1.411,9.545 3.982,13.534l-10.411,12.505-2.961-2.961c-1.951-1.952-5.119-1.952-7.07,0-1.953,1.953-1.953,5.119 0,7.071l3.607,3.607-35.891,43.115c-1.862,2.236-2.262,5.347-1.027,7.981 1.234,2.634 3.882,4.317 6.791,4.317h8v7h-8c-4.143,0-7.5,3.358-7.5,7.5s3.357,7.5 7.5,7.5h331c4.143,0 7.5-3.358 7.5-7.5s-3.357-7.5-7.5-7.5h-14v-14.015c37.105-5.783 73.62-15.124 109.224-27.981 5.121-1.849 9.303-5.773 11.474-10.766s2.188-10.728 0.046-15.734zm-342.762-48.379c15.467-2.624 30.094-9.7 41.688-20.282 30.628-27.95 70.403-43.343 112-43.343h84.896c6.511,0 12.565-3.227 16.196-8.632 1.81-2.694 2.89-5.742 3.214-8.868h0.102c17.958,39.96 31.957,78.709 37.718,104.545 1.967,8.823-3.029,17.67-11.621,20.58-115.471,39.104-297.185,33.791-347.008,31.455l62.815-75.455zm12.413-14.91c35.03-42.081 86.523-66.215 141.277-66.215h94.203c-0.253,1.15-0.722,2.263-1.413,3.292-1.796,2.674-4.673,4.208-7.895,4.208h-84.896c-44.097,0-86.266,16.321-118.74,45.957-6.945,6.338-15.133,11.238-23.945,14.451l1.409-1.693zm-54.415,35.615c0-8.276 6.733-15.01 15.01-15.01 0.859,0 1.712,0.076 2.55,0.221l-16.625,19.971c-0.603-1.639-0.935-3.387-0.935-5.182zm254.02,96.17h-289v-7h208.277c27.12,0 54.065-1.86 80.723-5.544v12.544zm116.941-58.742c-0.54,1.242-1.538,2.178-2.812,2.638-62.667,22.63-128.225,34.104-194.853,34.104h-210.274l8.164-9.807c12.073,0.665 42.524,2.087 82.105,2.087 13.234,0 27.489-0.159 42.413-0.559 67.313-1.803 162.497-9.013 233.699-33.125 13.442-4.552 21.255-18.406 18.174-32.228-5.514-24.728-18.314-60.823-34.843-98.548 1.964,1.635 3.565,3.729 4.614,6.182l53.624,125.399c0.533,1.245 0.528,2.615-0.011,3.857z"/>
    <path d="m210.916,212.419h87.822c17.237,0 31.262-14.024 31.262-31.263 0-8.811-3.745-17.257-10.276-23.171-6.53-5.915-15.309-8.806-24.072-7.938l-87.393,8.673c-13.83,1.371-24.259,12.886-24.259,26.783 0,14.842 12.074,26.916 26.916,26.916zm61.584-15h-46.584v-1.184c0-1.241 1.01-2.25 2.25-2.25h42.084c1.24,0 2.25,1.009 2.25,2.25v1.184zm-62.761-23.773l87.393-8.673c4.626-0.46 9.076,1.007 12.522,4.129 3.447,3.122 5.346,7.403 5.346,12.054 0,8.967-7.295,16.263-16.262,16.263h-16.238v-1.184c0-6.755-5.495-12.25-12.25-12.25h-42.084c-6.755,0-12.25,5.495-12.25,12.25v1.184h-5c-6.57,0-11.916-5.345-11.916-11.916 0-6.152 4.617-11.25 10.739-11.857z"/>
    <path d="m221,218.919c-9.649,0-17.5,7.851-17.5,17.5s7.851,17.5 17.5,17.5 17.5-7.851 17.5-17.5-7.851-17.5-17.5-17.5zm0,25c-4.136,0-7.5-3.364-7.5-7.5s3.364-7.5 7.5-7.5 7.5,3.364 7.5,7.5-3.364,7.5-7.5,7.5z"/>
    <path d="m260.477,219.073c-9.649,0-17.5,7.851-17.5,17.5s7.851,17.5 17.5,17.5 17.5-7.851 17.5-17.5-7.851-17.5-17.5-17.5zm0,25c-4.136,0-7.5-3.364-7.5-7.5s3.364-7.5 7.5-7.5 7.5,3.364 7.5,7.5-3.365,7.5-7.5,7.5z"/>
  </g>
</svg>
